<svg id="Capa_1" data-name="Capa 1" xmlns="http://www.w3.org/2000/svg" viewBox="0 0 100.5 101.5"><defs><style>.cls-1{fill:#fff;}</style></defs><path class="cls-1" d="M27.79,43.26H22.46c.08-.51.15-1,.23-1.43s.19-1,.25-1.48c0-.24.13-.3.36-.29h1.57a.9.9,0,0,0,1-1c0-2.47,0-4.93,0-7.4v-4a1.34,1.34,0,0,0-1.46-1.48H22.49V23.35h5.27V19h2.66v4.18h2.09V19h2.66v2.31c0,.56,0,1.12,0,1.67,0,.27.09.33.33.36a10.87,10.87,0,0,1,3.28.75,4.32,4.32,0,0,1,2.83,4.67,3.86,3.86,0,0,1-2,3.33l-.17.12c.34.12.64.21.94.33a4.06,4.06,0,0,1,2.77,3.74,7.82,7.82,0,0,1-.34,3A5.21,5.21,0,0,1,39,42.7a16.57,16.57,0,0,1-3.5.55l-.27,0v4.35H32.53V43.34h-2.1v4.28H27.79Zm2.71-3.2a.92.92,0,0,0,.26,0c1,0,2,0,2.93-.08a6.75,6.75,0,0,0,3-.8,2.3,2.3,0,0,0,1.15-2.39,2.61,2.61,0,0,0-1.93-2.08,11.33,11.33,0,0,0-3.47-.49H30.5Zm0-13.68v5.2A11.24,11.24,0,0,0,35,31.17a2.38,2.38,0,0,0,1.5-1.41,2.31,2.31,0,0,0-1.32-2.9A11.17,11.17,0,0,0,30.51,26.38Z"/><path class="cls-1" d="M36.91,64.33a31.19,31.19,0,1,1-6.27-62A30.14,30.14,0,0,1,55.5,12.1c6.7,7.13,9.19,15.73,8.22,25.41,10.4-1.1,19.35,1.92,26.61,9.43A30,30,0,0,1,99,68.61a31.11,31.11,0,0,1-31.34,31,30.06,30.06,0,0,1-23.28-10.7C38.22,81.88,35.86,73.62,36.91,64.33Zm3.63,4.12A27.28,27.28,0,1,0,67.88,41.16,27.27,27.27,0,0,0,40.54,68.45ZM5.39,33.34c.16,1.57.24,3.16.51,4.71A27.19,27.19,0,0,0,37.14,60.29a.91.91,0,0,0,.85-.75q5.13-15.81,21-20.93a.9.9,0,0,0,.72-.82,27.52,27.52,0,0,0-.11-9.45,27.33,27.33,0,0,0-54.17,5Z"/><path class="cls-1" d="M1.61,64.58H5.48v.72c0,3.58,0,7.15,0,10.72a9.71,9.71,0,0,0,8,9.78,6.79,6.79,0,0,0,1.27.16h9.07l-6.19-6.18L20.48,77l11,10.92L20.42,98.8l-2.64-2.64,6.31-6.28H23.3c-2.66,0-5.32,0-8,0A13.66,13.66,0,0,1,1.84,78.77a14.57,14.57,0,0,1-.25-2.72c0-3.64,0-7.27,0-10.91C1.58,65,1.6,64.78,1.61,64.58Z"/><path class="cls-1" d="M99,37.24H95.11v-.72c0-3.53,0-7.07,0-10.6a9.72,9.72,0,0,0-6.67-9.55,10.82,10.82,0,0,0-3.1-.51c-2.76-.07-5.52,0-8.29,0-.13,0-.26,0-.53.06l3.21,3.21,3.07,3.06-2.68,2.66-11-10.9L80.15,3l2.66,2.65-6.29,6.28h.84c3,0,6.1-.07,9.14.09A13.6,13.6,0,0,1,98.78,23.3,18,18,0,0,1,99,25.73c0,3.65,0,7.31,0,11C99,36.85,99,37,99,37.24Z"/><path class="cls-1" d="M67.43,86.49a2.75,2.75,0,0,0-.24-.41Q62,78.73,56.8,71.4a1.35,1.35,0,0,1-.19-.36l.32.17q5.13,3,10.25,6.07a.51.51,0,0,0,.62,0l10.25-6.06a1,1,0,0,1,.36-.14l-2,2.77Q72,80.14,67.53,86.43l0,.06Z"/><path class="cls-1" d="M67.66,50.55l11,18.31-2.48,1.47-8.26,4.88a.42.42,0,0,1-.5,0L56.86,69l-.21-.14Z"/></svg>