<svg id="Capa_1" data-name="Capa 1" xmlns="http://www.w3.org/2000/svg" viewBox="0 0 194.5 78"><defs><style>.cls-1{fill:#fff;}</style></defs><path class="cls-1" d="M171.92,69.65l-8.52-9.36c-1.73,2.71-3.19,5-4.94,7.73-2.3-8.58-4.47-16.67-6.78-25.31L177,49.48l-7.41,4.75L179,63.09C176.5,65.41,174.48,67.29,171.92,69.65Z"/><path class="cls-1" d="M151.27,54.91l1,3.61a19.38,19.38,0,0,1-6,1H79.91c-13.35,0-26.7,0-40,0A22.13,22.13,0,0,1,18.8,42.16a21.72,21.72,0,0,1,6.32-20.92,21,21,0,0,1,15-6.2C54.26,15,68.4,15,82.55,15h62.94a22.23,22.23,0,0,1,21.18,15.43,22,22,0,0,1,.46,12.08L167,43l-.18.5-3.35-.88c.18-1.81.47-3.54.5-5.27a17.49,17.49,0,0,0-4.31-11.92,18,18,0,0,0-14.2-6.64c-8.65-.06-17.3,0-25.95,0H40.82A18.56,18.56,0,0,0,36.1,55.3a21.93,21.93,0,0,0,4.77.53c11.19.05,22.39,0,33.58,0q34.76,0,69.52,0A21.63,21.63,0,0,0,151.27,54.91Z"/><path class="cls-1" d="M32.06,37.37A12.59,12.59,0,1,1,44.71,49.89,12.55,12.55,0,0,1,32.06,37.37Zm6.3-.89h5.45v-3l-4.89-.9Zm12-3.88-4.83.91v3h5.42Zm-12,5.46L38.93,42,43.87,41c0-.78,0-1.62,0-2.45,0-.19-.32-.5-.5-.5C41.75,38.05,40.16,38.06,38.34,38.06Zm7.11,3,4.91.89.55-3.84H45.45Zm0,7c1.64-.18,4-2.79,4.12-4.7l-4.12-.73ZM43.81,31.91V26.37c-2.34.75-3.36,2.58-4.33,4.73Zm0,16.19V42.66l-4.14.77C40,45.53,42.11,47.86,43.78,48.1Zm6-17c-1-2.18-2-4-4.32-4.75V31.9ZM33.69,36.47h3.08c.14-1,.23-1.91.4-2.82.33-1.83.34-1.82-1.29-2.68a.66.66,0,0,0-.24,0A10.41,10.41,0,0,0,33.69,36.47Zm19.87-5.6-1.77,1,.75,4.59H55.6A10.68,10.68,0,0,0,53.56,30.87ZM37.46,42.68l-.72-4.52H33.67a10.29,10.29,0,0,0,2,5.52Zm15.07-4.52-.73,4.51,1.8,1a10.8,10.8,0,0,0,2-5.53Zm-2.68,8.66L50,47l2.62-2-1.37-.8ZM50,27.59l-.14.17,1.42,2.62,1.33-.81ZM36.63,45l2.66,2,.14-.16L38,44.2Zm0-15.37,1.41.74,1.41-2.64-.14-.13Z"/><path class="cls-1" d="M136.25,42.39c.3-1.46.56-2.82.87-4.17q1-4.3,2-8.61c0-.2.29-.5.45-.51,1.1-.05,2.2,0,3.44,0-1.64,6.07-3.25,12-4.86,18-1.23,0-2.4,0-3.56,0-.21,0-.53-.39-.59-.65-1-3.7-1.88-7.41-2.8-11.11-.06-.22-.13-.43-.25-.82-.71,2.84-1.37,5.51-2.05,8.17-.33,1.3-.67,2.6-1.07,3.88a1.09,1.09,0,0,1-.7.54,4.08,4.08,0,0,1-1.05,0c-2.39,0-2.38,0-3-2.29q-1.86-7.38-3.74-14.76c-.06-.24-.11-.5-.19-.9,1.33,0,2.56,0,3.8,0,.16,0,.38.39.43.64q1.2,6,2.36,12.11c0,.22.13.43.2.69,1.1-4.29,2.21-8.52,3.25-12.77.15-.59.4-.77.95-.72a6.91,6.91,0,0,0,.79,0c2,0,2,0,2.45,1.94C134.35,34.76,135.28,38.51,136.25,42.39Z"/><path class="cls-1" d="M93.52,29.06c-.94,3.48-1.83,6.8-2.72,10.12-.64,2.36-1.3,4.72-1.91,7.09-.15.58-.39.82-1,.78a21.52,21.52,0,0,0-2.54,0c-.55,0-.75-.16-.88-.69-.89-3.68-1.82-7.36-2.73-11-.07-.27-.16-.54-.25-.86-1,3.85-2,7.63-2.91,11.42-.22.89-.54,1.31-1.51,1.18a12.32,12.32,0,0,0-2.19,0,.67.67,0,0,1-.8-.58q-2.14-8.52-4.33-17a1.48,1.48,0,0,1,0-.3h4.08L76.5,42.61c.55-2.21,1-4.19,1.55-6.17.58-2.26,1.17-4.52,1.73-6.78.11-.46.32-.59.78-.61,2.83-.09,2.84-.1,3.53,2.6q.69,2.67,1.34,5.35c.43,1.75.85,3.51,1.32,5.49.28-1.35.5-2.51.76-3.66.69-3,1.41-6,2.07-9,.13-.59.37-.76.93-.74C91.47,29.09,92.44,29.06,93.52,29.06Z"/><path class="cls-1" d="M118.26,29.07c-1.64,6-3.24,12-4.86,18-1.22,0-2.44,0-3.65,0-.18,0-.44-.33-.49-.56-1-3.75-1.89-7.51-2.82-11.27,0-.19-.12-.38-.24-.76-.58,2.34-1.11,4.5-1.66,6.65-.45,1.78-1,3.55-1.39,5.34a.69.69,0,0,1-.83.64c-1.11,0-2.22,0-3.36,0-1.53-6-3-11.92-4.56-17.92h4.15c.88,4.42,1.76,8.85,2.69,13.5.55-2.2,1-4.18,1.55-6.17.57-2.26,1.17-4.51,1.72-6.77.12-.46.31-.63.78-.61.93,0,2.09-.28,2.72.16s.62,1.61.84,2.48c.89,3.54,1.75,7.08,2.65,10.71.3-1.46.58-2.85.89-4.23q1-4.27,2-8.52a.91.91,0,0,1,.58-.57C116,29,117.05,29.07,118.26,29.07Z"/></svg>