<svg id="Capa_1" data-name="Capa 1" xmlns="http://www.w3.org/2000/svg" viewBox="0 0 169.5 101.5"><defs><style>.cls-1{fill:#fff;}</style></defs><path class="cls-1" d="M151.18,69.88c-2.22.16-3-.63-3-2.91.12-10.55.07-21.11,0-31.66,0-6.07-4-10.14-10.13-10.15q-51.36,0-102.73,0c-6.2,0-10.21,4.15-10.21,10.32q0,18,0,36.08c0,7.43,3.74,11.18,11.13,11.18q48,0,96.08,0c2.12,0,3.23.55,3,3-.73,0-1.5.1-2.27.1q-48.71,0-97.41,0c-8.34,0-13.59-5.24-13.59-13.5q0-18.58,0-37.19c0-7.64,5.37-13.06,13.08-13.12,7.15-.05,14.31,0,21.47,0h81.25c6,0,10.83,3.09,12.71,8.18a10.27,10.27,0,0,1,.72,3.43c.06,11.74.05,23.47,0,35.2A6.91,6.91,0,0,1,151.18,69.88Z"/><path class="cls-1" d="M154.92,96.15l-8.52-9.36c-1.73,2.71-3.19,5-4.94,7.73-2.3-8.58-4.47-16.67-6.78-25.31L160,76l-7.41,4.75L162,89.59C159.5,91.91,157.48,93.79,154.92,96.15Z"/><path class="cls-1" d="M66.75,66.8c2.18-.34,4.23-.2,5.69-1.06.77-.46.52-2.65.74-4.1-.51,0-.68,0-.79,0-4.66,2.36-7.53.75-7.85-4.48a16.52,16.52,0,0,1,.25-4.61c1.1-4.8,4.26-6,7.71-3.61l4.31-1.56c0,2,0,3.41,0,4.79,0,4,.1,8,0,11.95a6,6,0,0,1-9.46,4.65C66.83,68.44,66.89,67.33,66.75,66.8ZM73,55.34c0-.66,0-1.32,0-2a2.3,2.3,0,0,0-2.46-2.5c-1.51-.09-1.92,1.07-2.06,2.33a11.47,11.47,0,0,0-.08,2.19c.19,1.71-.44,4,2.23,4.28C72.32,59.85,73,58.43,73,55.34Z"/><path class="cls-1" d="M118.9,48.11c2.86-.5,2.86-.5,3.81,1.2.46-.33.9-.69,1.37-1,2.21-1.37,4.72-.9,5.85,1.42a11.24,11.24,0,0,1-.18,10.79c-1.52,2.76-4.23,2.51-7.16,2V69H118.9Zm3.66,7.82h0c0,.73,0,1.47,0,2.2,0,1.94,1.39,2.77,3,1.72A3.09,3.09,0,0,0,126.88,58a19.23,19.23,0,0,0,0-5.25c-.13-.73-1.52-1.92-1.94-1.77a4.5,4.5,0,0,0-2.3,2.15C122.26,53.87,122.56,55,122.56,55.93Z"/><path class="cls-1" d="M110.69,43.87h3.47c0,4.87.26,9.64-.09,14.37-.25,3.32-2.44,4.7-5.88,4.66s-5.57-1.45-5.81-4.77c-.34-4.67-.09-9.39-.09-14.23h3.51c0,3.46,0,6.83,0,10.2a10.54,10.54,0,0,0,.4,3.7c.32.82,1.43,1.87,2.15,1.83a3,3,0,0,0,2.07-2,25.73,25.73,0,0,0,.25-5.28C110.71,49.62,110.69,46.83,110.69,43.87Z"/><path class="cls-1" d="M42.11,61.93,43.18,59a12.81,12.81,0,0,0,3.51.75c1-.07,2.51-.67,2.67-1.31A4,4,0,0,0,48.2,55.5a15.59,15.59,0,0,0-2.9-2c-2.47-1.77-3.25-3.88-2.44-6.5.7-2.3,2.77-3.63,5.7-3.62a12.1,12.1,0,0,1,2.4.28c2.82.64,2.89.81,1.64,3.5a11.76,11.76,0,0,0-3.15-.76c-.89,0-2.28.57-2.49,1.21a3.45,3.45,0,0,0,.77,2.85A18.07,18.07,0,0,0,51,52.76c2.47,1.75,3.28,4.05,2.42,6.73-.67,2-2.65,3.42-5.43,3.34A45.25,45.25,0,0,1,42.11,61.93Z"/><path class="cls-1" d="M84.75,62.43H81.09V47.52l3.81,1.21-.11.65c.53-.37,1-.78,1.6-1.1,3.13-1.76,5.92-.39,6.09,3.16s0,7.19,0,11H88.86c0-2.68.07-5.37,0-8,0-1.34.55-3.41-1.67-3.41-2,0-2.51,1.6-2.44,3.48C84.83,57,84.75,59.67,84.75,62.43Z"/><path class="cls-1" d="M57.11,62.4c0-4.44-.14-8.71.06-13,.11-2.43,2.22-1.32,3.66-1.68V62.4Z"/><path class="cls-1" d="M11.74,27.68a40.52,40.52,0,0,1-5.29-.07c-.7-.1-1.27-1.07-1.9-1.65.63-.5,1.24-1.4,1.89-1.42,3.61-.14,7.23-.15,10.84,0,.65,0,1.26,1.06,1.89,1.64-.63.49-1.23,1.33-1.9,1.4a50.92,50.92,0,0,1-5.53.07Z"/><path class="cls-1" d="M18.9,17.27a1.51,1.51,0,0,1-2.41,1.27C13.55,15.77,10.72,12.89,8,10c-.29-.31-.09-1.44.26-1.88a1.71,1.71,0,0,1,1.71-.19c3,2.83,5.85,5.77,8.73,8.69A1.65,1.65,0,0,1,18.9,17.27Z"/><path class="cls-1" d="M27.71,12A38.77,38.77,0,0,1,27.64,17c-.1.75-.94,1.4-1.45,2.09-.54-.64-1.52-1.27-1.55-1.93-.15-3.59-.14-7.2,0-10.8,0-.64.91-1.25,1.39-1.87.56.65,1.51,1.24,1.6,2A42,42,0,0,1,27.71,12Z"/><path class="cls-1" d="M61.52,43.75c-.81.59-1.63,1.66-2.43,1.65s-1.77-1.12-2-1.93a1.7,1.7,0,0,1,1.84-2.3c.89.09,1.71,1,2.56,1.53Z"/></svg>