<svg id="Capa_1" data-name="Capa 1" xmlns="http://www.w3.org/2000/svg" viewBox="0 0 100.5 101.5"><defs><style>.cls-1{fill:#fff;}</style></defs><path class="cls-1" d="M64.57,36.88h-3c0-.28.09-.54.13-.8s.11-.54.14-.81.07-.17.2-.17H63a.5.5,0,0,0,.57-.57v-6.3a.74.74,0,0,0-.81-.82H61.63V25.85h2.92V23.46H66v2.31h1.15V23.46h1.48v1.28c0,.31,0,.62,0,.93,0,.14,0,.18.19.19a6.42,6.42,0,0,1,1.82.42,2.39,2.39,0,0,1,1.56,2.58,2.13,2.13,0,0,1-1.12,1.85l-.09.07a5.24,5.24,0,0,1,.52.18A2.26,2.26,0,0,1,73.07,33a4.53,4.53,0,0,1-.19,1.64,2.91,2.91,0,0,1-2.12,1.9,9.21,9.21,0,0,1-1.94.3h-.16v2.41H67.19V36.92H66v2.37H64.57Zm1.5-1.77.14,0c.54,0,1.09,0,1.63-.05a3.77,3.77,0,0,0,1.66-.44,1.29,1.29,0,0,0,.63-1.33,1.44,1.44,0,0,0-1.06-1.15,6.62,6.62,0,0,0-1.93-.27c-.35,0-.71,0-1.07,0Zm0-7.59v2.89a6.4,6.4,0,0,0,2.51-.23,1.34,1.34,0,0,0,.83-.78,1.28,1.28,0,0,0-.73-1.61A6.22,6.22,0,0,0,66.07,27.52Z"/><path class="cls-1" d="M55.54,17.27c7.13-4.71,14.36-5.4,21.61-1.12,6.67,3.93,9.64,10.08,9.49,17.88l1.23.22A7.42,7.42,0,0,1,94,41.49c0,1.77,0,3.54,0,5.3a1.8,1.8,0,0,0,.5,1.14A7.45,7.45,0,0,1,97,53.51C97,62.35,97,71.2,97,80a7.39,7.39,0,0,1-7.59,7.55H55.62c0,.43-.07.8-.07,1.17a7.47,7.47,0,0,1-7.84,7.72H12.78A7.41,7.41,0,0,1,5,88.7Q5,53.15,5,17.59c0-1.83,0-3.66,0-5.5a7.38,7.38,0,0,1,7.56-7.57q17.67,0,35.32,0a7.43,7.43,0,0,1,7.64,7.62C55.57,13.8,55.54,15.47,55.54,17.27ZM8.21,16.56V81.45H37.57v-1.8q0-18.75,0-37.52c0-4.9,3.15-8,8-8H48a19.51,19.51,0,0,1,4.14-13.38.93.93,0,0,0,.24-.5c0-1.21,0-2.42,0-3.67ZM93.85,57.82V54.14c0-3.36-1.66-5-5-5h-41c-2.4,0-4.84.26-7.09-1.43v1.57q0,15.15,0,30.29c0,3.16,1.7,4.92,4.85,4.92h43.7c2.15,0,4-1.17,4.33-3.12a44.2,44.2,0,0,0,.31-5.58H92.65c-5.43,0-10.87,0-16.3,0a9,9,0,1,1,0-17.94H93.85ZM76.23,46a1.7,1.7,0,0,0,.92-.43c4.89-4,7-9.1,6.1-15.35A16.18,16.18,0,1,0,55.32,43.62c1.45,1.61,3,2.68,5.32,2.38C69.13,46.1,75.33,46.05,76.23,46ZM52.3,87.59c-2.38,0-4.72,0-7.06,0a7.56,7.56,0,0,1-5.68-2.42,1.93,1.93,0,0,0-1.22-.52c-9.67,0-19.35,0-29,0H8.15v3.8c0,3.17,1.72,4.9,4.87,4.9H47.34C50.92,93.35,52.69,91.36,52.3,87.59Zm41.5-15V61a5,5,0,0,0-.61-.06c-5.69,0-11.38,0-17.07,0a6.12,6.12,0,0,0-1.7.29,5.83,5.83,0,0,0,1.83,11.38c2.73,0,5.47,0,8.2,0ZM8.23,13.32H52.3c.44-3.62-1.38-5.68-4.94-5.68-11.38,0-22.77.06-34.15,0C10.2,7.57,7.64,9.63,8.23,13.32ZM53.19,46a21.9,21.9,0,0,1-4.54-8.06,1.08,1.08,0,0,0-.75-.62,21.25,21.25,0,0,0-3.09,0,4.34,4.34,0,0,0,.4,8.67h8Zm37.72,0c0-1.36,0-2.74,0-4.11a6.12,6.12,0,0,0-.1-1.05,4.38,4.38,0,0,0-4-3.53c-.53,0-.76.11-1,.65a39.62,39.62,0,0,1-2,4.59A33.4,33.4,0,0,1,81.54,46Z"/><path class="cls-1" d="M25.77,90.51v-3h9v3Z"/><path class="cls-1" d="M73.21,65.25h3v3h-3Z"/></svg>